<svg xmlns="http://www.w3.org/2000/svg" viewBox="0 0 170.4877 255.7526"><defs><style>.cls-1{fill:#3b444b;}.cls-1,.cls-2,.cls-3{fill-rule:evenodd;}.cls-2{fill:#3b444b;}.cls-3{fill:#3b444b;}</style></defs><title>ppg_logo</title><g id="Layer_2" data-name="Layer 2"><g id="svg"><g id="svgg"><path id="path0" class="cls-1" d="M77.6118.0335a14.056,14.056,0,0,1-3.164.357c-3.651.17-5.9411.592-5.9411,1.094,0,.21-.3332.2759-.7406.1465-2.5376-.8063-7.4753,1.61-9.849,2.4267A83.9023,83.9023,0,0,0,46.7584,8.8315,88.5739,88.5739,0,0,0,27.3557,22.437C16.1376,32.7788,6.3648,46.49,2.4416,61.3524-2.6893,80.79.8273,101.4894,7.7847,120.0655c6.6179,17.67,16.4143,33.9446,26.1545,50.1047l51.5833,85.5824,13.0511-21.8288c1.231-2.0589,2.4974-4.2325,2.5858-6.63.1018-2.763-1.3724-5.3091-2.7982-7.6781L50.99,140.9125C41.1545,124.5721,31.02,107.24,30.66,88.1711,30.2572,66.8062,43.6277,45.81,63.1581,37.1394s44.0713-4.5066,59.6481,10.1218,21.2726,38.86,13.844,58.8955c-8.6873,23.4309-32.5706,38.2668-56.8584,44.1474l33.4769,57.6079c10.3909-22.21,25.3789-41.9179,37.5288-63.2167s21.6374-45.3488,19.3474-69.7622c-1.91-20.3577-12.25-39.67-27.6787-53.0872C124.6081,6.3162,101.02-.5439,77.6118.0335m4.681,50.693c-.22.084-1.992.384-3.9391.666a13.1914,13.1914,0,0,0-4.047,1.021,4.196,4.196,0,0,1-1.6559.782c-1.999.475-7.8981,3.432-9.012,4.517-2.2141,2.155-2.008,11.2331.255,11.2331.2879,0,.819.4489,1.179.9989.636.97.79.9991,5.341,1.011,2.577.007,6.821.267,9.43.577l4.7429.5641,1.351-1.433c1.3261-1.4051,1.3961-1.427,3.7-1.1871,2.3129.242,4.043-.4339,4.043-1.581,0-.524,8.002-8.141,8.553-8.141.4649,0,2.636-2.412,2.636-2.928,0-.604-3.356-2.389-6.593-3.508a5.9011,5.9011,0,0,1-1.8561-.909c-.5809-.806-12.6689-2.246-14.1279-1.683m23.776,6.914c0,.209-.494.636-1.099.948a13.7694,13.7694,0,0,0-3.796,2.79,10.6577,10.6577,0,0,1-1.898,1.504,20.7393,20.7393,0,0,0-2.4241,2.187,10.6424,10.6424,0,0,0-2.23,2.552c.106.107-.351.681-1.016,1.275-1.169,1.044-1.199,1.156-.867,3.22.382,2.378.217,2.237,4.938,4.236,3.547,1.502,5.092,2.42,4.7139,2.7981-.2139.2139-2.078-.7161-4.1219-2.0551a1.69,1.69,0,0,0-1.435-.3309c-.298.1849-.3741.1269-.201-.153.172-.278-.148-.54-.8371-.685a8.219,8.219,0,0,1-1.8089-.6121c-.99-.5349-1.904-.464-1.904.149,0,.294-1.0611.841-2.4251,1.25-2.33.698-4.3679,2.6631-4.3679,4.212a.3786.3786,0,0,1-.336.4081c-.437,0-2.112,3.1129-3.427,6.3719a15.2178,15.2178,0,0,1-1.336,2.797c-.527.394-1.696,4.091-1.43,4.522.142.23.072.303-.155.162-.2411-.149-.606.452-.872,1.437A101.599,101.599,0,0,0,75.3,106.5986c0,.39-.1929.709-.4279.709s-.37.3659-.299.815.2529.763.4059.6989.8661.6481,1.584,1.582c1.4991,1.951,2.6131,2.118,7.6281,1.147,1.9-.3679,2.699-.393,2.703-.085.005.305.095.302.3-.012a3.4682,3.4682,0,0,1,1.692-.751,39.4374,39.4374,0,0,0,8.842-3.129,29.7224,29.7224,0,0,1,3.3459-1.6559l1.5981-.6321-1.176.9881c-1.273,1.0679-6.839,3.3179-11.011,4.45a16.588,16.588,0,0,0-3.029,1.0339,21.7563,21.7563,0,0,1-4.396.779c-7.62.8641-8.084,2.47-2.47,8.557a7.4172,7.4172,0,0,1,1.306,1.818c.782,2.42,7.789,6.6981,7.789,4.7561,0-.18.405-.446.9-.5911,1.877-.552,6.5131-2.796,6.98-3.378.268-.334.4919-.4509.499-.26s.597-.084,1.312-.61a24.8878,24.8878,0,0,1,2.841-1.746,4.7946,4.7946,0,0,0,1.741-1.288.8709.8709,0,0,1,.755-.499c.306,0,.5569-.177.5569-.392s.4041-.51.899-.653c.722-.209,4.4821-4.021,9.075-9.198,1.03-1.161,3.2581-5.8459,3.0441-6.4019-.1131-.2961-.0351-.5381.1739-.5381.653,0,.89-1.896.4151-3.3329-.419-1.27-2.019-2.3561-2.019-1.3711,0,.26-.638.329-1.7.184-1.5929-.219-1.82-.122-3.608,1.544a14.88,14.88,0,0,1-2.118,1.7771,7.2687,7.2687,0,0,0-1.4649,1.1729,12.8265,12.8265,0,0,1-2.276,1.698,8.3234,8.3234,0,0,0-1.549,1.025c-.587.556-1.27.6621-1.27.198,0-.167.585-.552,1.2989-.8569a8.5657,8.5657,0,0,0,2.375-1.696,4.0984,4.0984,0,0,1,1.4631-1.1411,3.9534,3.9534,0,0,0,1.421-1.23c.569-.6761,1.035-1.0921,1.035-.9241s.539-.212,1.198-.8429c1.361-1.304,1.43-1.662.623-3.218-.7011-1.351-.385-3.366.642-4.0981.403-.287.733-.683.733-.879,0-.494-2.39-3.993-2.728-3.993a20.4962,20.4962,0,0,1-2.834-2.399,15.4243,15.4243,0,0,0-2.7061-2.254c-.19.191-2.4819-1.895-2.2969-2.09a8.1114,8.1114,0,0,1,2.158,1.2979,10.629,10.629,0,0,0,2.414,1.449.4147.4147,0,0,1,.399.428c0,.45.978,1.57,1.3709,1.57.345,0,3.1311,3.16,3.608,4.092.2281.447.5751.773.7711.724a.6241.6241,0,0,1,.599.266c1.623,2.359,5.432.654,6.8909-3.084.5411-1.384.56-5.371.0241-5.0469-.152.0919-.323-.7471-.379-1.8661a5.075,5.075,0,0,0-.44-2.256,10.27,10.27,0,0,1-1.163-2.619,30.2984,30.2984,0,0,0-3.69-7.429c-.329-.3559-1.3931-1.665-2.3631-2.91a36.7325,36.7325,0,0,0-6.528-6.2c-.3839-.298-.6989-.371-.6989-.161M59.9818,60.73c-.5781.497-.9511,1.004-.829,1.127s-.15.341-.606.486-.83.3961-.83.5581a8.3213,8.3213,0,0,1-1.4341,1.86c-1.5009,1.6389-4.16,6.29-4.16,7.2769,0,.45.3689.519,1.6981.318,1.0966-.1653,2.4062-.103,3.3753-.724.9886-.6336,1.3206-1.9053,2.1569-2.7025.4821-.46,1.0967-.7571,1.6009-1.1924,1.0558-.9117.7469-2.2108.7508-3.4541a18.4,18.4,0,0,1,.2309-3.445c.38-.99-.8479-1.0579-1.9539-.108m7.1369,10.996a.704.704,0,0,1-.823.157c-.39-.15-.5869.0311-.5869.541a2.9747,2.9747,0,0,1-.7991,1.625,3.069,3.069,0,0,0-.7989,1.236c0,.209-.36.285-.799.17-.733-.1911-.799-.0121-.799,2.1659,0,3.134,2.292,15.555,2.8089,15.222.103-.066.1581-.061.1211.013-.179.356,1.54,4.662,1.971,4.9351.391.2489.391.3149-.001.32-.332.004-.155.7621.5359,2.3031a27.0359,27.0359,0,0,1,1.1041,2.7049,9.63,9.63,0,0,0,.923,1.798,24.7456,24.7456,0,0,1,1.468,2.89c.721,1.748,2.116,2.091,2.433.599a70.3047,70.3047,0,0,1,2.226-8.491,12.7283,12.7283,0,0,0,.934-2.398c1.585-5.1029,3.008-8.591,3.506-8.591.179,0,.222-.272.094-.6049a1.2447,1.2447,0,0,1,.194-1.1171c.234-.282,1.2449-2.093,2.2469-4.0229a45.552,45.552,0,0,1,2.8161-4.8151c1.235-1.619,1.2339-1.852-.005-3.188a3.7153,3.7153,0,0,1-.999-1.657c0-.319-.3591-.5789-.7991-.5789s-.7989-.14-.7989-.31-.719-.2419-1.599-.1579c-1.05.1-1.598-.01-1.598-.321,0-.334-.8811-.4341-2.998-.3421a7.6725,7.6725,0,0,1-2.9971-.168c.0011-.443-6.705-.364-6.981.083M53.0318,73.23c-4.261.5311-6.314,19.97-2.733,25.886a37.7024,37.7024,0,0,1,1.5919,3.596,11.7522,11.7522,0,0,0,1.569,3.083,1.0616,1.0616,0,0,1,.4941.599c.127,1.2311.744,2.512,1.209,2.512a.5548.5548,0,0,1,.556.55c0,1.27,2.009,1.803,9.856,2.618l3.531.367,1.27-1.409c1.1719-1.2989,1.35-2.306.5169-2.925a16.8482,16.8482,0,0,1-1.3819-2.698,7.0972,7.0972,0,0,0-1.4821-2.497c-.203,0-.2469-.197-.0979-.4379a2.0771,2.0771,0,0,0-.23-1.4981c-.2749-.584-.638-1.421-.806-1.86s-.5769-1.429-.91-2.1979c-1.415-3.269-3.225-11.179-3.679-16.0791-.157-1.7-.419-3.0089-.5811-2.909s-.2129-.248-.1129-.7749c.152-.7941-.0921-1.099-1.427-1.78a4.2029,4.2029,0,0,1-1.866-1.627c-.2621-.8261-1.6871-.9661-5.287-.5181m66.9169,16.168c-.996,1.1171-1.0789,1.435-.8439,3.205a5.0544,5.0544,0,0,1-.252,2.922c-.4341.812-.407,1.118.181,2.015l.694,1.058.561-1.081a2.0922,2.0922,0,0,0,.3019-1.5019c-.1429-.23-.0829-.31.1321-.1771.234.144.5859-1.2129.871-3.357.628-4.717.322-5.29-1.6451-3.083m-62.6309,22.79c0,.6571.938,2.712,1.238,2.712.198,0,.361.2251.3629.4991a24.7976,24.7976,0,0,0,2.1971,4.088,26.1546,26.1546,0,0,1,2.196,4.0419,3.53,3.53,0,0,0,.756,1.4151,43.0035,43.0035,0,0,1,3.6889,6.24c1.8421,3.504,2.748,3.02,2.748-1.469a3.8214,3.8214,0,0,1,.347-1.848c.4541-.495,1.3151-8.34,1.0041-9.149-.1311-.342-.039-.6209.204-.6209.9039,0,.399-1.49-.893-2.6341a7.1516,7.1516,0,0,1-1.4981-1.665c-.1-.294-1.7019-.642-4.097-.89-2.1629-.224-4.9049-.5219-6.0939-.661a6.0666,6.0666,0,0,0-2.16-.059m16.0229,4.863c-.5079.611-2.0159,11.308-2.0289,14.384l-.008,1.949,1.6859-.27a3.91,3.91,0,0,0,1.957-.7081,1.0617,1.0617,0,0,1,1.0921-.2229c.4509.1179.874.0889.94-.0631a14.8635,14.8635,0,0,1,3.3161-1.2059c1.758-.511,3.806-1.177,4.551-1.481L86.2,128.88l-1.03-.954c-.5661-.5249-.934-1.05-.817-1.167s-.705-1.14-1.827-2.273a34.5679,34.5679,0,0,1-3.22-3.778,6.9873,6.9873,0,0,0-1.798-1.953c-.34-.13-.5871-.376-.55-.547.3229-1.4969-2.568-2.422-3.6171-1.157"/><path id="path2" class="cls-2" d="M47.0078,8.2865c-.7641.764-.5551,1.173.32.626.8071-.504,1.0681-1.106.479-1.106a1.59,1.59,0,0,0-.7989.48M84.9238,127.72c.457.4579.9389.726,1.069.5959s-.109-.5-.5331-.82c-1.1479-.8689-1.4879-.727-.5359.2241"/><path id="path3" class="cls-3" d="M96.4787,33.5355a2.6336,2.6336,0,0,0,1.177.327c.6481.095,1.0871.026.976-.154-.198-.321-2.153-.478-2.153-.173M.9268,68.0585c-.132.794-.073,1.167.148.946a1.8038,1.8038,0,0,0,.2179-1.312c-.1259-.8-.1819-.743-.3659.366m168.7709,4.084c0,.769.082,1.084.1831.699a3.3,3.3,0,0,0,0-1.399c-.1011-.384-.1831-.069-.1831.7m-89.1039.2751a3.2707,3.2707,0,0,0,1.399,0c.3849-.1.07-.183-.6991-.183s-1.084.0829-.7.183m58.735,4.92c0,.769.082,1.083.182.699a3.27,3.27,0,0,0,0-1.3989c-.1-.3841-.182-.07-.182.7m-.125,20.4791c-.1191.8589-.0581,1.3479.143,1.1469a2.2906,2.2906,0,0,0,.208-1.498c-.1321-1.056-.16-1.028-.351.3511m30.4939.6989c0,.77.082,1.084.1831.7a3.299,3.299,0,0,0,0-1.3989c-.1011-.3851-.1831-.07-.1831.6989M1.0668,102.9115c0,.7691.082,1.084.183.699a3.2948,3.2948,0,0,0,0-1.398c-.101-.385-.183-.07-.183.699m56.9549,9.074a4.3774,4.3774,0,0,0,1.5981-.008c.382-.1-.025-.178-.9041-.1739s-1.1909.086-.694.1819"/><path id="path4" class="cls-3" d="M96.4787,33.5355a2.6336,2.6336,0,0,0,1.177.327c.6481.095,1.0871.026.976-.154-.198-.321-2.153-.478-2.153-.173M.9268,68.0585c-.132.794-.073,1.167.148.946a1.8038,1.8038,0,0,0,.2179-1.312c-.1259-.8-.1819-.743-.3659.366m168.7709,4.084c0,.769.082,1.084.1831.699a3.3,3.3,0,0,0,0-1.399c-.1011-.384-.1831-.069-.1831.7m-89.1039.2751a3.2707,3.2707,0,0,0,1.399,0c.3849-.1.07-.183-.6991-.183s-1.084.0829-.7.183m58.735,4.92c0,.769.082,1.083.182.699a3.27,3.27,0,0,0,0-1.3989c-.1-.3841-.182-.07-.182.7m-.125,20.4791c-.1191.8589-.0581,1.3479.143,1.1469a2.2906,2.2906,0,0,0,.208-1.498c-.1321-1.056-.16-1.028-.351.3511m30.4939.6989c0,.77.082,1.084.1831.7a3.299,3.299,0,0,0,0-1.3989c-.1011-.3851-.1831-.07-.1831.6989M1.0668,102.9115c0,.7691.082,1.084.183.699a3.2948,3.2948,0,0,0,0-1.398c-.101-.385-.183-.07-.183.699m56.9549,9.074a4.3774,4.3774,0,0,0,1.5981-.008c.382-.1-.025-.178-.9041-.1739s-1.1909.086-.694.1819"/></g></g></g></svg>