<svg xmlns="http://www.w3.org/2000/svg" viewBox="0 0 504.36 116.18"><defs><style>.cls-1{fill:#fff;}</style></defs><title>light</title><g id="Layer_2" data-name="Layer 2"><g id="Layer_1-2" data-name="Layer 1"><path class="cls-1" d="M51.33,94.11c-4.88-8.49-9.7-16.91-14.54-25.31-.41-.7-.1-.75.5-.85A33.48,33.48,0,0,0,59,54.68c11.5-15.25,1.92-37.63-17-40A25.31,25.31,0,0,0,13.35,41a24.86,24.86,0,0,0,3.42,11.48Q31.2,77.38,45.64,102.3a1.56,1.56,0,0,1,0,1.82c-2.32,4-4.59,7.94-7,12.06-.26-.41-.46-.71-.64-1Q21.08,85.63,4.12,56.1A32.11,32.11,0,0,1,0,40.37c-.23-16.17,6.79-28.3,21-36S54.07-.5,65.57,10.93A38.2,38.2,0,0,1,77.31,40.86,34.94,34.94,0,0,1,72.75,57Q62.28,75.1,51.86,93.27C51.72,93.51,51.56,93.74,51.33,94.11Z"/><path class="cls-1" d="M374.45,61.83c0,2.36,0,4.72,0,7.08a1.94,1.94,0,0,1-.57,1.48c-5.82,6.15-12.81,8.89-21.13,6.63s-13.67-8.1-15.66-16.51a22.44,22.44,0,0,1,12.58-26C357.75,31,365.12,32.6,371.82,38c.47.37.53.64.13,1.12-1,1.2-2,2.42-2.89,3.68-.43.59-.68.5-1.16,0-2.88-2.68-6.19-4.39-10.23-4.22-5.61.24-9.62,3.13-12.37,7.85-5,8.56-1.68,19.82,6.94,23.91a13.91,13.91,0,0,0,15.36-2.54,1.28,1.28,0,0,0,.42-1c0-2.12,0-4.24,0-6.36,0-.62-.16-.84-.8-.82-1.32.05-2.64,0-4,0-.61,0-.85-.14-.83-.8,0-1.51,0-3,0-4.55,0-.58.19-.75.76-.75,3.48,0,7,0,10.44,0,.76,0,.83.33.82.94C374.44,57,374.45,59.39,374.45,61.83Z"/><path class="cls-1" d="M273.41,50.11a12.25,12.25,0,0,1,11.68-2.88,10.55,10.55,0,0,1,8.06,9.06,69,69,0,0,1,.21,8.38c0,3.84,0,7.68,0,11.52,0,.73-.16,1-.92.94a37.36,37.36,0,0,0-4,0c-.76,0-.92-.21-.91-.94,0-5.48,0-11,0-16.44a11,11,0,0,0-.35-3.08c-.93-3.19-4.17-4.94-7.73-4.24a7.11,7.11,0,0,0-6,7.34c.19,5.39,0,10.8.07,16.2,0,1-.28,1.21-1.2,1.16-1.31-.08-2.64-.06-3.95,0-.71,0-1-.14-1-.91q0-13.92,0-27.84c0-.73.2-1,.94-.94a2.41,2.41,0,0,0,.6,0C271.07,47.28,273.13,47.1,273.41,50.11Z"/><path class="cls-1" d="M302.77,61.89c0-3,0-5.6,0-8.16,0-.76-.2-1-.93-.91a3.47,3.47,0,0,1-.72,0c-.87-.07-2.29.35-2.48-.18a10.76,10.76,0,0,1-.19-3.65c0-.41.4-.42.7-.51,1-.27,1.91-.6,2.88-.81.59-.14.74-.42.73-1,0-2.08,0-4.16,0-6.24,0-.72.18-1,.93-1,1.4,0,2.8.06,4.2,0,.84,0,1,.32,1,1,0,1.88,0,3.76,0,5.64,0,1,.19,1.32,1.23,1.28,1.95-.09,3.91,0,5.87-.05.81,0,1,.25,1,1a23.41,23.41,0,0,0,0,3.35c.09,1-.3,1.1-1.14,1.08-2-.06-4.08,0-6.12,0-.49,0-.82,0-.81.68.05,5.43,0,10.87.12,16.3.05,2.09,1.15,3,3.26,3,.28,0,.56,0,.84,0,.86.06,2.17-.51,2.48,0a15.73,15.73,0,0,1,1.15,3.88c.1.41-.27.47-.5.53a14.68,14.68,0,0,1-7.31.66c-3.35-.72-5.49-3.43-5.91-7.26C302.63,67.56,302.85,64.48,302.77,61.89Z"/><path class="cls-1" d="M498.29,54.52c0-7.15,0-14.3,0-21.46,0-.94.23-1.24,1.18-1.17a23.9,23.9,0,0,0,3.59,0c1-.07,1.33.16,1.32,1.27-.06,7.27,0,14.54,0,21.82,0,7,0,14,0,21,0,.93-.21,1.24-1.16,1.17a21.28,21.28,0,0,0-3.48,0c-1.11.1-1.46-.18-1.45-1.39C498.33,68.67,498.29,61.6,498.29,54.52Z"/><path class="cls-1" d="M388.21,54.49c0,7.16,0,14.31,0,21.46,0,.94-.22,1.25-1.17,1.18a23.9,23.9,0,0,0-3.59,0c-1,.07-1.34-.15-1.33-1.26.06-6.88,0-13.75,0-20.62,0-7.4,0-14.79,0-22.18,0-.93.21-1.25,1.16-1.18a24.31,24.31,0,0,0,3.72,0c1.06-.1,1.21.32,1.2,1.26C388.19,40.27,388.21,47.38,388.21,54.49Z"/><path class="cls-1" d="M196.12,47.34c-.43,1.62-.88,3.15-1.25,4.69-.18.76-.34,1-1.24.68a8.08,8.08,0,0,0-10,5.21,6.32,6.32,0,0,0-.2,1.78c0,5.43-.07,10.86-.06,16.3,0,.87-.17,1.19-1.1,1.13-1.4-.09-2.8,0-4.2,0-.62,0-.81-.18-.81-.81q0-14,0-28.05c0-.61.17-.91.81-.83h.12c1.2,0,2.51-.29,3.56.1s.88,2.07,1.61,3C186.77,46.25,191.32,46.37,196.12,47.34Z"/><path class="cls-1" d="M37.24,50.64c-2.14.2-3.24-1.07-2.9-2.51A42.7,42.7,0,0,1,39.27,36c.31-.51.6-1,1.36-.87a.57.57,0,0,0,.46-.1c1.17-1.18,2.25-.32,3.32.16a18.38,18.38,0,0,1,6.27,4.71c.46.52.79.91.17,1.58a1.43,1.43,0,0,0-.14,1.8c.46.66.07,1-.35,1.37A23.45,23.45,0,0,1,37.24,50.64Z"/><path class="cls-1" d="M131.09,62.26c0-4.6,0-9.2,0-13.8,0-.84.23-1.09,1.07-1.05,1.35.07,2.72.06,4.07,0,.74,0,.95.17.94.92-.05,3,0,6,0,9,0,6.16,0,12.32.07,18.47,0,1.15-.35,1.41-1.39,1.33a20.11,20.11,0,0,0-3.47,0c-1.13.12-1.28-.33-1.27-1.32C131.12,71.29,131.09,66.77,131.09,62.26Z"/><path class="cls-1" d="M33.31,32a6.11,6.11,0,0,0-1.58,0c-1.46.5-2.2-.67-3.16-1.31-.4-.26-.11-.73-.16-1.11-.36-2.46.92-3.75,3-4.69a16.68,16.68,0,0,1,15.19.42c.75.38,1.13.64.16,1.29a24.89,24.89,0,0,0-4.64,4.3c-.35.39-.58.63-1.18.39a1.6,1.6,0,0,0-2,.58c-.41.65-.88.63-1.5.55C36,32.25,34.51,32.11,33.31,32Z"/><path class="cls-1" d="M25.56,33.21a.48.48,0,0,1,.61.24c.07.14.13.37.24.4,1.84.6,1.44,2.27,1.66,3.58A36.41,36.41,0,0,0,31.9,48.94c.36.67,0,1-.2,1.45s-.62.5-1.07.42a9.7,9.7,0,0,0-1.07-.11c-3.92-.34-4.32-.61-5.89-4.18a16.36,16.36,0,0,1-.9-11.11C23.27,33.54,23.64,33.27,25.56,33.21Z"/><path class="cls-1" d="M54,45.53c-.18.44-.34.85-.52,1.25-2.33,5.1-6.6,8.06-11.47,10.34-2.4,1.13-2.42,1.12-4.18-.88-.76-.87-1.5-1.76-2.2-2.68-.31-.4-.79-.73-.46-1.46s.84-.62,1.37-.67a24.69,24.69,0,0,0,12-4.46,9.51,9.51,0,0,0,2.12-1.75c.72-.92,1.67-.78,2.57-.8C53.91,44.4,53.76,45.16,54,45.53Z"/><path class="cls-1" d="M33.56,32.73c1.27.14,2.66.29,4,.42.46.05.66.31,1,.69.69.86.35,1.44-.11,2.19a42.53,42.53,0,0,0-5,12.39c-.07.28.05.73-.36.8s-.52-.4-.67-.7a36.1,36.1,0,0,1-4-13.22c0-.45,0-.78.44-.95a.48.48,0,0,0,.28-.22C30.13,32.09,31.9,32.82,33.56,32.73Z"/><path class="cls-1" d="M55.08,38.38a2.93,2.93,0,0,1-1.42,2.28,2.23,2.23,0,0,1-2.32-1,18.85,18.85,0,0,0-8.07-5.77,1.5,1.5,0,0,1-.67-2.46,28.4,28.4,0,0,1,5-4.61c.33-.24.61-.59,1.13-.18A16.7,16.7,0,0,1,55.08,38.38Z"/><path class="cls-1" d="M134.06,41.07a3.9,3.9,0,1,1,3.9-4A3.82,3.82,0,0,1,134.06,41.07Z"/><path class="cls-1" d="M31.63,60.62,26.13,51l4.76.6a3,3,0,0,1,1.63,2.12C32.26,55.9,32,58.09,31.63,60.62Z"/><path class="cls-1" d="M32.5,60.27a61,61,0,0,1,.77-6.55.79.79,0,0,1,1.37-.3A48,48,0,0,0,38.5,58c.49.5.06.55-.28.67A44.06,44.06,0,0,1,32.5,60.27Z"/><path class="cls-1" d="M23.8,32.66a15.88,15.88,0,0,1,3.93-5.22C27.76,31.11,26.65,32.61,23.8,32.66Z"/><path class="cls-1" d="M54.39,43.24a2.57,2.57,0,0,0,.07-1.17c-.21-.88-.2-.89.6-1.71a8.25,8.25,0,0,1-.46,3.16C54.44,43.49,54.43,43.36,54.39,43.24Z"/><path class="cls-1" d="M54.39,43.24l.21.28-.12.78C53.83,43.94,54.18,43.58,54.39,43.24Z"/><path class="cls-1" d="M451.86,49.76a13.72,13.72,0,0,0-18,.78v-1c0-5.52,0-11,0-16.55,0-.84-.22-1.1-1.06-1.06a30.59,30.59,0,0,1-3.83,0c-1-.07-1.23.29-1.23,1.26q0,21.35,0,42.7c0,.28,0,.56,0,.84s.1.4.34.4a19.78,19.78,0,0,0,4.29-.09c.82-.19.78-1.54,1.2-2.33.08-.16.15-.32.22-.47.12,0,.16,0,.19,0l.55.46a12.69,12.69,0,0,0,11.07,2.93A14.58,14.58,0,0,0,457.51,64.2C458,58.48,456.39,53.52,451.86,49.76Zm-3.7,20.48A8,8,0,0,1,439.81,72c-3.2-1.05-4.85-3.46-5.56-6.63a14.57,14.57,0,0,1-.28-3.09,16.11,16.11,0,0,1,.49-4c1.67-6.64,9.87-7.4,13.68-3.84C452.45,58.44,452.51,66.25,448.16,70.24Z"/><path class="cls-1" d="M125,43.48a12.58,12.58,0,0,0-12.76-10.29c-5.4,0-10.79,0-16.19,0-1,0-1.27.23-1.27,1.24,0,6.91,0,13.83,0,20.74s0,13.91,0,20.87c0,.91.24,1.16,1.13,1.11a41.5,41.5,0,0,1,4.32,0c.84,0,1.16-.13,1.16-1.09-.06-5.64,0-11.27,0-16.91,0-.85.22-1.05,1-1,3.56,0,7.12,0,10.68,0A12.4,12.4,0,0,0,125,43.48Zm-12.8,8.59c-3.28,0-6.56,0-9.84,0-.76,0-1-.16-1-1V39.83c0-.64.19-.81.81-.81,3.44,0,6.89,0,10.32,0a6.51,6.51,0,1,1-.28,13Z"/><path class="cls-1" d="M229.52,59.42c-.85-5.5-3.78-9.68-9.11-11.68s-10-1.12-14.63,2.95c.14-3.71-2.24-3.3-4.48-3.29-1,0-1.28.23-1.27,1.25,0,9.16,0,18.31,0,27.46,0,4.08,0,8.16,0,12.24,0,.75.15,1.06,1,1,1.4-.07,2.8-.06,4.2,0,.7,0,.86-.22.85-.88,0-2.71,0-5.43,0-8.15V74.18c.24.12.36.14.43.22,4.06,4.4,12,4.44,16.58,1.19C228.67,71.61,230.54,66,229.52,59.42Zm-9.17,10.8c-2.62,2.45-5.71,2.82-9,1.61s-4.59-3.8-5-7a15.07,15.07,0,0,1,.31-6.41,8.06,8.06,0,0,1,7.32-6.1,8.52,8.52,0,0,1,8.65,5.16,10.45,10.45,0,0,1,1,4.29C223.59,65.43,222.59,68.12,220.35,70.22Z"/><path class="cls-1" d="M491.85,48.64v-.72c0-.26,0-.48-.38-.48a17.87,17.87,0,0,0-4.52.16c-.82.23-.61,1.76-1,2.65,0,.07-.07.14-.17.33-3.77-3.81-8.25-4.65-13.16-3.1-10.1,3.19-13.87,16.21-7.15,24.66,3.67,4.61,8.47,6.51,14.31,5.38a10.11,10.11,0,0,0,6-3.61C486.4,75,486,76.55,487,77s2.27.11,3.43.12a1.92,1.92,0,0,1,.24,0c.91.15,1.19-.17,1.19-1.14C491.83,66.86,491.85,57.75,491.85,48.64Zm-9.31,21.49c-3.68,3.61-9.2,3-12.25-1.34a11.42,11.42,0,0,1,0-12.84,7.87,7.87,0,0,1,7.09-3.74c3.47.2,5.8,2.21,7.28,5.27a9.49,9.49,0,0,1,1,4.5A10.64,10.64,0,0,1,482.54,70.13Z"/><path class="cls-1" d="M150.11,65h9.72c3.31,0,6.63,0,9.95,0,.82,0,1.11-.2,1.09-1.06a25.63,25.63,0,0,0-1.59-8.79,13.2,13.2,0,0,0-18.74-6.86c-4.82,2.61-7.31,6.84-8,12.2-1.16,8.63,5.74,16.93,14.35,17.29a17.5,17.5,0,0,0,12.54-4.09c.58-.49.69-.83,0-1.37a18.53,18.53,0,0,1-2-2c-.69-.81-1.14-1-2.14-.2a10.23,10.23,0,0,1-15.95-3.84C148.79,65,148.79,65,150.11,65Zm-1-6.39c1.35-4,4.76-6.57,8.56-6.29a7.48,7.48,0,0,1,6.66,6.5c.08.76-.27.75-.8.74-2.31,0-4.63,0-7,0s-4.47,0-6.7,0C149.07,59.62,148.77,59.54,149.07,58.64Z"/><path class="cls-1" d="M260.87,54.59c-4.12-7.44-13.16-10.1-20.27-5.76-5.57,3.4-7.86,8.61-7.46,15.05A15,15,0,0,0,248,77.83a11.62,11.62,0,0,0,3.61-.44C261.22,74.75,265.79,63.47,260.87,54.59Zm-6.08,14c-3.2,4.82-9.15,5.24-13,.93A11.21,11.21,0,0,1,241.85,55c4.22-4.52,10.86-3.42,13.65,2.26a11.44,11.44,0,0,1-.71,11.29Z"/><path class="cls-1" d="M419.87,52.93a14.48,14.48,0,0,0-20.66-3.15,16,16,0,0,0-4.88,18.67,14.69,14.69,0,0,0,13.82,9.38,11.75,11.75,0,0,0,3.39-.39C422,74.72,426.34,61.92,419.87,52.93ZM414,69.65a7.81,7.81,0,0,1-11.23.81c-4.8-4.08-4.78-12.31.05-16.32a8,8,0,0,1,12,1.85,11.76,11.76,0,0,1,1.92,6.73A10.87,10.87,0,0,1,414,69.65Z"/></g></g></svg>